<?xml version="1.0" encoding="utf-8"?>
<!-- Generator: Adobe Illustrator 27.0.1, SVG Export Plug-In . SVG Version: 6.00 Build 0)  -->
<svg version="1.1" id="Слой_1" xmlns="http://www.w3.org/2000/svg" xmlns:xlink="http://www.w3.org/1999/xlink" x="0px" y="0px"
	 viewBox="0 0 20 26" style="enable-background:new 0 0 20 26;" xml:space="preserve">
<style type="text/css">
	.st0{fill:#FFFFFF;}
</style>
<g>
	<path class="st0" d="M14.1,5.4H4.5C4,5.4,3.6,5.3,3.2,5.1L1.6,4.5C1,4.3,0.6,3.7,0.6,3c0-0.7,0.4-1.2,1-1.5l1.6-0.6
		C3.6,0.8,4,0.7,4.4,0.7h9.7c0.4,0,0.8,0.1,1.2,0.2l1.7,0.7c0.6,0.2,1,0.8,1,1.5c0,0.7-0.4,1.2-1,1.5l-1.7,0.7
		C14.9,5.3,14.5,5.4,14.1,5.4z M4.4,1.2c-0.3,0-0.7,0.1-1,0.2L1.8,2C1.3,2.2,1.1,2.7,1.1,3c0,0.4,0.2,0.8,0.7,1l1.6,0.6
		c0.4,0.1,0.7,0.2,1.1,0.2h9.6c0.3,0,0.7-0.1,1-0.2l1.7-0.7c0.5-0.2,0.7-0.7,0.7-1c0-0.4-0.2-0.8-0.7-1l-1.7-0.7
		c-0.3-0.1-0.7-0.2-1-0.2H4.4z"/>
</g>
<g>
	<path class="st0" d="M14.1,25.4H4.5c-0.4,0-0.9-0.1-1.3-0.2l-1.6-0.6c-0.6-0.2-1-0.8-1-1.5c0-0.7,0.4-1.2,1-1.5l1.6-0.6
		c0.4-0.1,0.8-0.2,1.2-0.2h9.7c0.4,0,0.8,0.1,1.2,0.2l1.7,0.7c0.6,0.2,1,0.8,1,1.5c0,0.7-0.4,1.2-1,1.5l-1.7,0.7
		C14.9,25.3,14.5,25.4,14.1,25.4z M4.4,21.2c-0.3,0-0.7,0.1-1,0.2L1.8,22c-0.5,0.2-0.7,0.7-0.7,1c0,0.4,0.2,0.8,0.7,1l1.6,0.6
		c0.4,0.1,0.7,0.2,1.1,0.2h9.6c0.3,0,0.7-0.1,1-0.2l1.7-0.7c0.5-0.2,0.7-0.7,0.7-1c0-0.4-0.2-0.8-0.7-1l-1.7-0.7
		c-0.3-0.1-0.7-0.2-1-0.2H4.4z"/>
</g>
<g>
	<rect x="0.6" y="3" class="st0" width="0.5" height="20"/>
</g>
<g>
	<rect x="0.8" y="12.9" class="st0" width="17.8" height="0.5"/>
</g>
<g>
	<path class="st0" d="M18.6,14.3c0.6,0,1.1-0.5,1.1-1.1c0-0.6-0.5-1.1-1.1-1.1s-1.1,0.5-1.1,1.1C17.5,13.8,18,14.3,18.6,14.3z"/>
</g>
</svg>
