<svg width="20" height="26" viewBox="0 0 20 26" fill="none" xmlns="http://www.w3.org/2000/svg">
<path d="M14.2688 5.15254H4.67525C4.27042 5.15254 3.86851 5.07698 3.4899 4.92877L1.90845 4.30977C0.755127 3.85933 0.755127 2.23191 1.90845 1.77856L3.54523 1.13922C3.88598 1.00554 4.25004 0.935791 4.61701 0.935791H14.2717C14.6445 0.935791 15.0114 1.00554 15.358 1.14212L17.0472 1.80181C18.1802 2.24354 18.1802 3.8448 17.0472 4.28652L15.358 4.94621C15.0114 5.08279 14.6445 5.15254 14.2717 5.15254H14.2688Z" stroke="white" stroke-width="0.475466" stroke-miterlimit="10"/>
<path d="M14.2688 25.1469H4.67525C4.27042 25.1469 3.86851 25.0714 3.4899 24.9232L1.90845 24.3042C0.755127 23.8537 0.755127 22.2263 1.90845 21.7729L3.54523 21.1336C3.88598 20.9999 4.25004 20.9302 4.61701 20.9302H14.2717C14.6445 20.9302 15.0114 20.9999 15.358 21.1365L17.0472 21.7962C18.1802 22.2379 18.1802 23.8392 17.0472 24.2809L15.358 24.9406C15.0114 25.0772 14.6445 25.1469 14.2717 25.1469H14.2688Z" stroke="white" stroke-width="0.475466" stroke-miterlimit="10"/>
<path d="M1.04053 3.04321V23.0779" stroke="white" stroke-width="0.475466" stroke-miterlimit="10"/>
<path d="M18.8296 13.1704H1.04053" stroke="white" stroke-width="0.475466" stroke-miterlimit="10"/>
<path d="M18.83 14.2575C19.4315 14.2575 19.9192 13.7709 19.9192 13.1706C19.9192 12.5704 19.4315 12.0837 18.83 12.0837C18.2284 12.0837 17.7407 12.5704 17.7407 13.1706C17.7407 13.7709 18.2284 14.2575 18.83 14.2575Z" fill="white"/>
</svg>
