<svg width="68" height="27" viewBox="0 0 68 27" fill="none" xmlns="http://www.w3.org/2000/svg">
<path fill-rule="evenodd" clip-rule="evenodd" d="M3.30566 7.43688H1.96611V13.179H0V0.114624H1.96611V5.34734H3.30566V0.114624H5.27157V13.179H3.30566V7.43688Z" fill="white"/>
<path fill-rule="evenodd" clip-rule="evenodd" d="M8.71836 13.3508H8.33106C6.74683 13.3508 5.90198 12.4892 5.90198 10.8706V8.24956H7.87351V10.5366C7.87351 11.1346 8.06706 11.4511 8.52481 11.4511C8.99998 11.4511 9.17612 11.1346 9.17612 10.3254V10.0263C9.17612 9.09424 9.08805 8.76001 8.36649 7.82773L7.0989 6.20937C6.25405 5.11867 6.00766 4.27439 6.00766 2.97267V2.55064C6.00766 0.809073 6.88754 0 8.45436 0H8.82405C10.4609 0 11.0946 0.721063 11.0946 2.26921V4.41521H9.17612V2.53304C9.17612 2.09319 9.08805 1.75896 8.61268 1.75896C8.13751 1.75896 8.03183 2.05799 8.03183 2.67365V2.92007C8.03183 3.65894 8.17274 4.06338 8.84145 4.92526L10.1088 6.56121C11.0065 7.72211 11.2882 8.39078 11.2882 9.86811V10.2906C11.2882 12.2075 10.4609 13.3508 8.71836 13.3508Z" fill="white"/>
<path fill-rule="evenodd" clip-rule="evenodd" d="M16.3979 0.114624V2.01087H13.888V5.4352H15.8574V7.41951H13.888V11.1949H16.5023V13.179H11.9183V0.114624H16.3979Z" fill="white"/>
<path fill-rule="evenodd" clip-rule="evenodd" d="M21.6459 8.77167L21.1119 3.94247L20.5959 8.77167H21.6459ZM21.8591 10.7204H20.4002L20.1334 13.179H18.3359L19.9551 0.114624H22.3397L24.0659 13.179H22.1264L21.8591 10.7204Z" fill="white"/>
<path fill-rule="evenodd" clip-rule="evenodd" d="M26.356 5.48771H26.8879C27.4374 5.48771 27.6149 5.13649 27.6149 4.55705V2.73088C27.6149 2.16901 27.4907 1.88808 26.8879 1.88808H26.356V5.48771ZM26.356 13.179H24.3524V0.114624H27.5973C28.9269 0.114624 29.6007 0.676491 29.6007 2.13387V4.45163C29.6007 5.54042 29.0864 5.96172 28.732 6.11986C29.1751 6.31294 29.6007 6.66436 29.6007 7.5421V12.1253C29.6007 12.652 29.707 12.8976 29.7959 13.0907V13.179H27.8098C27.7211 13.0384 27.6149 12.8102 27.6149 12.1077V8.17446C27.6149 7.59481 27.5086 7.34902 26.8701 7.34902H26.356V13.179Z" fill="white"/>
<path fill-rule="evenodd" clip-rule="evenodd" d="M33.5237 2.01087V13.179H31.5689V2.01087H29.9105V0.114624H35.1821V2.01087H33.5237Z" fill="white"/>
<path fill-rule="evenodd" clip-rule="evenodd" d="M39.7527 8.77167L39.2187 3.94247L38.7027 8.77167H39.7527ZM39.966 10.7204H38.5068L38.2399 13.179H36.4426L38.062 0.114624H40.4463L42.1726 13.179H40.2331L39.966 10.7204Z" fill="white"/>
<path fill-rule="evenodd" clip-rule="evenodd" d="M44.2972 0.114624L45.9905 7.1208V0.114624H47.7881V13.179H46.1824L44.2972 5.66322V13.179H42.5165V0.114624H44.2972Z" fill="white"/>
<path fill-rule="evenodd" clip-rule="evenodd" d="M50.5757 11.2823H51.0503C51.6477 11.2823 51.8235 10.9664 51.8235 10.2642V2.90659C51.8235 2.15144 51.6303 1.88808 51.138 1.88808H50.5757V11.2823ZM48.5901 0.114624H51.6303C53.3344 0.114624 53.8617 1.08022 53.8617 2.62566V10.5801C53.8617 12.1778 53.2643 13.179 51.6303 13.179H48.5901V0.114624Z" fill="white"/>
<path fill-rule="evenodd" clip-rule="evenodd" d="M1.98571 24.7479H2.46005C3.05748 24.7479 3.23332 24.432 3.23332 23.7298V16.3721C3.23332 15.6171 3.0401 15.3536 2.54797 15.3536H1.98571V24.7479ZM0 13.5801H3.0401C4.74427 13.5801 5.27157 14.5459 5.27157 16.0909V24.0459C5.27157 25.6435 4.67414 26.6444 3.0401 26.6444H0V13.5801Z" fill="white"/>
<path fill-rule="evenodd" clip-rule="evenodd" d="M10.4958 13.5801V15.4766H7.98611V18.9005H9.95554V20.8851H7.98611V24.6605H10.6005V26.6444H6.01648V13.5801H10.4958Z" fill="white"/>
<path fill-rule="evenodd" clip-rule="evenodd" d="M13.8178 26.8163H13.4305C11.8463 26.8163 11.0015 25.9544 11.0015 24.3359V21.7152H12.973V24.0019C12.973 24.5999 13.1665 24.9166 13.6241 24.9166C14.0995 24.9166 14.2756 24.5999 14.2756 23.7909V23.4919C14.2756 22.5596 14.1875 22.2254 13.466 21.2931L12.1984 19.6746C11.3535 18.5842 11.1071 17.7401 11.1071 16.4387V16.0162C11.1071 14.2747 11.987 13.4655 13.5538 13.4655H13.9235C15.5604 13.4655 16.1941 14.1871 16.1941 15.7346V17.8809H14.2756V15.9986C14.2756 15.5588 14.1875 15.2246 13.7122 15.2246C13.237 15.2246 13.1313 15.5236 13.1313 16.1392V16.3856C13.1313 17.1243 13.2722 17.5291 13.9409 18.3908L15.2083 20.0265C16.106 21.1875 16.3876 21.856 16.3876 23.3337V23.7559C16.3876 25.6728 15.5604 26.8163 13.8178 26.8163Z" fill="white"/>
<mask id="mask0_570_68" style="mask-type:alpha" maskUnits="userSpaceOnUse" x="16" y="13" width="9" height="14">
<path d="M16.9109 13.4709H24.9506V26.804H16.9109V13.4709Z" fill="#1A1919"/>
</mask>
<g mask="url(#mask0_570_68)">
<path fill-rule="evenodd" clip-rule="evenodd" d="M16.9109 26.6408H18.9164V13.594H16.9109V26.6408Z" fill="white"/>
</g>
<mask id="mask1_570_68" style="mask-type:alpha" maskUnits="userSpaceOnUse" x="16" y="13" width="9" height="14">
<path d="M16.9109 13.4709H24.9506V26.804H16.9109V13.4709Z" fill="#1A1919"/>
</mask>
<g mask="url(#mask1_570_68)">
<path fill-rule="evenodd" clip-rule="evenodd" d="M21.5255 26.8163C20.3543 26.8163 19.609 25.7818 19.609 24.4314V16.2768C19.609 14.8215 20.1769 13.4709 22.0758 13.4709H22.4661C24.6136 13.4709 24.8621 14.8564 24.8621 16.3998V17.7326H22.9098V16.2592C22.9098 15.6808 22.7678 15.3651 22.2712 15.3651C21.8452 15.3651 21.6498 15.6808 21.6498 16.2592V23.8878C21.6498 24.5014 21.8982 24.8173 22.3065 24.8173C22.8213 24.8173 23.0517 24.4665 23.0517 23.9754V20.7137H22.1466V18.7145H24.9506V26.6408H23.8149C23.7972 26.5706 23.6375 25.922 23.4777 25.3608C23.3356 25.7993 22.6612 26.8163 21.6498 26.8163H21.5255Z" fill="white"/>
</g>
<path fill-rule="evenodd" clip-rule="evenodd" d="M27.3935 13.5801L29.0869 20.5862V13.5801H30.8846V26.6444H29.2788L27.3935 19.1288V26.6444H25.613V13.5801H27.3935Z" fill="white"/>
<path fill-rule="evenodd" clip-rule="evenodd" d="M36.1075 26.8163H35.7202C34.1362 26.8163 33.2911 25.9544 33.2911 24.3359V21.7152H35.2627V24.0019C35.2627 24.5999 35.4562 24.9166 35.914 24.9166C36.3891 24.9166 36.5651 24.5999 36.5651 23.7909V23.4919C36.5651 22.5596 36.4772 22.2254 35.7552 21.2931L34.4881 19.6746C33.6432 18.5842 33.3968 17.7401 33.3968 16.4387V16.0162C33.3968 14.2747 34.2769 13.4655 35.8435 13.4655H36.2132C37.8501 13.4655 38.4838 14.1871 38.4838 15.7346V17.8809H36.5651V15.9986C36.5651 15.5588 36.4772 15.2246 36.0018 15.2246C35.5267 15.2246 35.4212 15.5236 35.4212 16.1392V16.3856C35.4212 17.1243 35.5619 17.5291 36.2306 18.3908L37.498 20.0265C38.3957 21.1875 38.6773 21.856 38.6773 23.3337V23.7559C38.6773 25.6728 37.8501 26.8163 36.1075 26.8163Z" fill="white"/>
<path fill-rule="evenodd" clip-rule="evenodd" d="M42.4713 24.0056V20.9666H44.4071V23.988C44.4071 25.3937 43.9536 26.8163 42.0528 26.8163H41.6168C39.6285 26.8163 39.1929 25.3759 39.1929 24.0586V16.083C39.1929 14.7483 39.7682 13.4655 41.5472 13.4655H42.0005C44.163 13.4655 44.4071 14.9063 44.4071 16.1886V18.5247H42.4713V16.2236C42.4713 15.6615 42.297 15.3629 41.8089 15.3629C41.3203 15.3629 41.1983 15.6441 41.1983 16.2236V23.988C41.1983 24.5677 41.3901 24.8839 41.8262 24.8839C42.297 24.8839 42.4713 24.5326 42.4713 24.0056Z" fill="white"/>
<path fill-rule="evenodd" clip-rule="evenodd" d="M48.3431 20.9027H47.0035V26.6444H45.0376V13.5801H47.0035V18.8129H48.3431V13.5801H50.3092V26.6444H48.3431V20.9027Z" fill="white"/>
<path fill-rule="evenodd" clip-rule="evenodd" d="M54.4716 16.3642C54.4716 15.6791 54.2426 15.3629 53.7847 15.3629C53.2739 15.3629 53.0798 15.6969 53.0798 16.3642V23.8828C53.0798 24.4449 53.2385 24.8839 53.8022 24.8839C54.3308 24.8839 54.4716 24.4449 54.4716 23.8828V16.3642ZM56.4975 23.7424C56.4975 25.5691 55.8808 26.8163 53.9608 26.8163H53.6259C51.7233 26.8163 51.0541 25.5691 51.0541 23.7424V16.4695C51.0541 14.6602 51.7411 13.4655 53.6082 13.4655H53.9432C55.8808 13.4655 56.4975 14.6602 56.4975 16.4519V23.7424Z" fill="white"/>
<path fill-rule="evenodd" clip-rule="evenodd" d="M60.4881 16.3642C60.4881 15.6791 60.2589 15.3629 59.801 15.3629C59.2902 15.3629 59.0963 15.6969 59.0963 16.3642V23.8828C59.0963 24.4449 59.2547 24.8839 59.8184 24.8839C60.3471 24.8839 60.4881 24.4449 60.4881 23.8828V16.3642ZM62.5139 23.7424C62.5139 25.5691 61.8973 26.8163 59.9771 26.8163H59.6423C57.7397 26.8163 57.0704 25.5691 57.0704 23.7424V16.4695C57.0704 14.6602 57.7573 13.4655 59.6247 13.4655H59.9596C61.8973 13.4655 62.5139 14.6602 62.5139 16.4519V23.7424Z" fill="white"/>
<path fill-rule="evenodd" clip-rule="evenodd" d="M65.2453 13.5801V24.6251H67.6709V26.6444H63.2588V13.5801H65.2453Z" fill="white"/>
</svg>
