<svg width="174" height="27" viewBox="0 0 174 27" fill="none" xmlns="http://www.w3.org/2000/svg">
<path d="M100.269 5.15254H90.6752C90.2704 5.15254 89.8685 5.07698 89.4899 4.92877L87.9084 4.30977C86.7551 3.85933 86.7551 2.23191 87.9084 1.77856L89.5452 1.13922C89.886 1.00554 90.25 0.935791 90.617 0.935791H100.272C100.644 0.935791 101.011 1.00554 101.358 1.14212L103.047 1.80181C104.18 2.24354 104.18 3.8448 103.047 4.28652L101.358 4.94621C101.011 5.08279 100.644 5.15254 100.272 5.15254H100.269Z" stroke="white" stroke-width="0.475466" stroke-miterlimit="10"/>
<path d="M100.269 25.1469H90.6752C90.2704 25.1469 89.8685 25.0714 89.4899 24.9232L87.9084 24.3042C86.7551 23.8537 86.7551 22.2263 87.9084 21.7729L89.5452 21.1336C89.886 20.9999 90.25 20.9302 90.617 20.9302H100.272C100.644 20.9302 101.011 20.9999 101.358 21.1365L103.047 21.7962C104.18 22.2379 104.18 23.8392 103.047 24.2809L101.358 24.9406C101.011 25.0772 100.644 25.1469 100.272 25.1469H100.269Z" stroke="white" stroke-width="0.475466" stroke-miterlimit="10"/>
<path d="M87.0405 3.04321V23.0779" stroke="white" stroke-width="0.475466" stroke-miterlimit="10"/>
<path d="M104.83 13.1704H87.0405" stroke="white" stroke-width="0.475466" stroke-miterlimit="10"/>
<path d="M104.83 14.2575C105.432 14.2575 105.919 13.7709 105.919 13.1706C105.919 12.5704 105.432 12.0837 104.83 12.0837C104.228 12.0837 103.741 12.5704 103.741 13.1706C103.741 13.7709 104.228 14.2575 104.83 14.2575Z" fill="white"/>
<path d="M145.076 5.15254H135.482C135.078 5.15254 134.676 5.07698 134.297 4.92877L132.716 4.30977C131.562 3.85933 131.562 2.23191 132.716 1.77856L134.352 1.13922C134.693 1.00554 135.057 0.935791 135.424 0.935791H145.079C145.452 0.935791 145.819 1.00554 146.165 1.14212L147.854 1.80181C148.987 2.24354 148.987 3.8448 147.854 4.28652L146.165 4.94621C145.819 5.08279 145.452 5.15254 145.079 5.15254H145.076Z" stroke="white" stroke-width="0.475466" stroke-miterlimit="10"/>
<path d="M145.076 25.1469H135.482C135.078 25.1469 134.676 25.0714 134.297 24.9232L132.716 24.3042C131.562 23.8537 131.562 22.2263 132.716 21.7729L134.352 21.1336C134.693 20.9999 135.057 20.9302 135.424 20.9302H145.079C145.452 20.9302 145.819 20.9999 146.165 21.1365L147.854 21.7962C148.987 22.2379 148.987 23.8392 147.854 24.2809L146.165 24.9406C145.819 25.0772 145.452 25.1469 145.079 25.1469H145.076Z" stroke="white" stroke-width="0.475466" stroke-miterlimit="10"/>
<path d="M131.848 3.04321V23.0779" stroke="white" stroke-width="0.475466" stroke-miterlimit="10"/>
<path d="M149.637 13.1704H131.848" stroke="white" stroke-width="0.475466" stroke-miterlimit="10"/>
<path d="M149.637 14.2575C150.239 14.2575 150.726 13.7709 150.726 13.1706C150.726 12.5704 150.239 12.0837 149.637 12.0837C149.036 12.0837 148.548 12.5704 148.548 13.1706C148.548 13.7709 149.036 14.2575 149.637 14.2575Z" fill="white"/>
<path d="M164.43 2.17376C165.032 2.17376 165.519 1.68715 165.519 1.08688C165.519 0.486613 165.032 0 164.43 0C163.828 0 163.341 0.486613 163.341 1.08688C163.341 1.68715 163.828 2.17376 164.43 2.17376Z" fill="white"/>
<path d="M171.9 8.25049L156.959 25.6609" stroke="white" stroke-width="0.475466" stroke-miterlimit="10"/>
<path d="M172.137 9.07537C172.738 9.07537 173.226 8.58876 173.226 7.98849C173.226 7.38822 172.738 6.90161 172.137 6.90161C171.535 6.90161 171.047 7.38822 171.047 7.98849C171.047 8.58876 171.535 9.07537 172.137 9.07537Z" fill="white"/>
<path d="M155.542 2.29284C155.714 2.23181 155.903 2.23181 156.078 2.29284C156.456 2.42362 157.1 2.72585 157.164 3.26638C157.257 4.04231 157.164 25.1028 157.164 25.1028C157.164 25.1028 157.225 25.87 156.046 26.1577C155.885 26.1984 155.714 26.1839 155.559 26.1229C155.181 25.9717 154.482 25.6317 154.482 25.1522V3.36229C154.482 3.36229 154.336 2.72294 155.542 2.29284Z" stroke="white" stroke-width="0.475466" stroke-miterlimit="10"/>
<path d="M65.6701 1.02209C65.842 0.961061 66.0313 0.961061 66.206 1.02209C66.5846 1.15286 67.2283 1.4551 67.2924 1.99563C67.3855 2.77156 67.2924 23.8321 67.2924 23.8321C67.2924 23.8321 67.3535 24.5993 66.174 24.887C66.0138 24.9277 65.842 24.9131 65.6876 24.8521C65.309 24.701 64.61 24.361 64.61 23.8815V2.09153C64.61 2.09153 64.4644 1.45219 65.6701 1.02209Z" stroke="white" stroke-width="0.475466" stroke-miterlimit="10"/>
<path d="M67.0273 1.52197L73.7376 9.41203" stroke="white" stroke-width="0.475466" stroke-miterlimit="10"/>
<path d="M82.2242 0.981562C82.0524 0.920534 81.863 0.920534 81.6883 0.981562C81.3097 1.11234 80.666 1.41457 80.602 1.9551C80.5088 2.73103 80.602 23.7915 80.602 23.7915C80.602 23.7915 80.5408 24.5587 81.7203 24.8465C81.8805 24.8871 82.0523 24.8726 82.2067 24.8116C82.5853 24.6605 83.2843 24.3204 83.2843 23.8409V2.05101C83.2843 2.05101 83.4299 1.41166 82.2242 0.981562Z" stroke="white" stroke-width="0.475466" stroke-miterlimit="10"/>
<path d="M80.867 1.48145L74.1567 9.3715" stroke="white" stroke-width="0.475466" stroke-miterlimit="10"/>
<path d="M73.8686 10.3622C74.4701 10.3622 74.9578 9.87563 74.9578 9.27536C74.9578 8.67509 74.4701 8.18848 73.8686 8.18848C73.267 8.18848 72.7793 8.67509 72.7793 9.27536C72.7793 9.87563 73.267 10.3622 73.8686 10.3622Z" fill="white"/>
<path d="M36.6084 1.42041H28.573C27.8013 1.42041 27.0615 1.72555 26.514 2.2719L24.0617 4.71593C23.0016 5.77084 23.0016 7.48544 24.0617 8.54035L26.514 10.9844C27.0615 11.5278 27.8013 11.8359 28.573 11.8359H36.6084C37.3802 11.8359 38.12 11.5307 38.6675 10.9844L41.1198 8.54035C42.1799 7.48544 42.1799 5.77084 41.1198 4.71593L38.6675 2.2719C38.12 1.72846 37.3802 1.42041 36.6084 1.42041Z" stroke="white" stroke-width="0.475466" stroke-miterlimit="10"/>
<path d="M27.7021 25.5065V1.55444" stroke="white" stroke-width="0.475466" stroke-miterlimit="10"/>
<path d="M27.7025 2.64154C28.3041 2.64154 28.7918 2.15492 28.7918 1.55466C28.7918 0.954388 28.3041 0.467773 27.7025 0.467773C27.101 0.467773 26.6133 0.954388 26.6133 1.55466C26.6133 2.15492 27.101 2.64154 27.7025 2.64154Z" fill="white"/>
<path d="M15.8117 4.68452H4.78813C4.40369 4.68452 4.01925 4.62059 3.6552 4.49272L2.05919 3.93765C0.766076 3.48721 0.766076 1.66218 2.05919 1.21173L3.70762 0.639232C4.03673 0.525894 4.38331 0.467773 4.72988 0.467773H15.8117C16.1641 0.467773 16.5165 0.525893 16.8514 0.642137L18.5639 1.23789C19.8337 1.67961 19.8337 3.47268 18.5639 3.9144L16.8514 4.51015C16.5165 4.6264 16.167 4.68452 15.8117 4.68452Z" stroke="white" stroke-width="0.475466" stroke-miterlimit="10"/>
<path fill-rule="evenodd" clip-rule="evenodd" d="M0.851562 24.5448V2.57764H1.32703V24.5448H0.851562Z" fill="white"/>
<path d="M1.08925 25.6315C1.69082 25.6315 2.17849 25.1449 2.17849 24.5447C2.17849 23.9444 1.69082 23.4578 1.08925 23.4578C0.487674 23.4578 0 23.9444 0 24.5447C0 25.1449 0.487674 25.6315 1.08925 25.6315Z" fill="white"/>
<path fill-rule="evenodd" clip-rule="evenodd" d="M19.2783 24.5448V2.57764H19.7538V24.5448H19.2783Z" fill="white"/>
<path d="M124.392 5.15254H113.369C112.984 5.15254 112.6 5.08861 112.236 4.96074L110.64 4.40567C109.347 3.95523 109.347 2.1302 110.64 1.67975L112.288 1.10725C112.617 0.993912 112.964 0.935791 113.31 0.935791H124.392C124.745 0.935791 125.097 0.993915 125.432 1.11016L127.144 1.70591C128.414 2.14763 128.414 3.9407 127.144 4.38242L125.432 4.97818C125.097 5.09442 124.748 5.15254 124.392 5.15254Z" stroke="white" stroke-width="0.475466" stroke-miterlimit="10"/>
<path d="M118.882 0.970703V25.0129" stroke="white" stroke-width="0.475466" stroke-miterlimit="10"/>
<path d="M118.882 6.23968C119.484 6.23968 119.971 5.75306 119.971 5.1528C119.971 4.55253 119.484 4.06592 118.882 4.06592C118.281 4.06592 117.793 4.55253 117.793 5.1528C117.793 5.75306 118.281 6.23968 118.882 6.23968Z" fill="white"/>
<path d="M60.8538 8.10005V17.571C60.8538 18.7131 60.3558 19.8 59.4879 20.544L55.6493 23.8482C54.2776 25.031 52.2418 25.031 50.87 23.8482L47.0315 20.544C46.1636 19.7971 45.6655 18.7131 45.6655 17.571V8.10005C45.6655 6.95795 46.1636 5.87107 47.0315 5.12711L50.87 1.82288C52.2418 0.640095 54.2776 0.640095 55.6493 1.82288L59.4879 5.12711C60.3558 5.87398 60.8538 6.95795 60.8538 8.10005Z" stroke="white" stroke-width="0.475466" stroke-miterlimit="10"/>
<path d="M45.6685 12.8372H60.8538" stroke="white" stroke-width="0.475466" stroke-miterlimit="10"/>
<path d="M53.2611 13.924C53.8627 13.924 54.3504 13.4374 54.3504 12.8371C54.3504 12.2369 53.8627 11.7502 53.2611 11.7502C52.6595 11.7502 52.1719 12.2369 52.1719 12.8371C52.1719 13.4374 52.6595 13.924 53.2611 13.924Z" fill="white"/>
</svg>
