<svg width="20" height="26" viewBox="0 0 20 26" fill="none" xmlns="http://www.w3.org/2000/svg">
<path d="M1.67013 1.02209C1.84196 0.961061 2.03127 0.961061 2.20601 1.02209C2.58463 1.15286 3.22828 1.4551 3.29235 1.99563C3.38555 2.77156 3.29235 23.8321 3.29235 23.8321C3.29235 23.8321 3.35351 24.5993 2.17398 24.887C2.0138 24.9277 1.84196 24.9131 1.6876 24.8521C1.30899 24.701 0.610004 24.361 0.610004 23.8815V2.09153C0.610004 2.09153 0.464387 1.45219 1.67013 1.02209Z" stroke="white" stroke-width="0.475466" stroke-miterlimit="10"/>
<path d="M3.02734 1.52197L9.73757 9.41203" stroke="white" stroke-width="0.475466" stroke-miterlimit="10"/>
<path d="M18.2242 0.981562C18.0524 0.920534 17.863 0.920534 17.6883 0.981562C17.3097 1.11234 16.666 1.41457 16.602 1.9551C16.5088 2.73103 16.602 23.7915 16.602 23.7915C16.602 23.7915 16.5408 24.5587 17.7203 24.8465C17.8805 24.8871 18.0523 24.8726 18.2067 24.8116C18.5853 24.6605 19.2843 24.3204 19.2843 23.8409V2.05101C19.2843 2.05101 19.4299 1.41166 18.2242 0.981562Z" stroke="white" stroke-width="0.475466" stroke-miterlimit="10"/>
<path d="M16.867 1.48145L10.1567 9.3715" stroke="white" stroke-width="0.475466" stroke-miterlimit="10"/>
<path d="M9.86856 10.3622C10.4701 10.3622 10.9578 9.87563 10.9578 9.27536C10.9578 8.67509 10.4701 8.18848 9.86856 8.18848C9.26698 8.18848 8.7793 8.67509 8.7793 9.27536C8.7793 9.87563 9.26698 10.3622 9.86856 10.3622Z" fill="white"/>
</svg>
