<svg width="17" height="25" viewBox="0 0 17 25" fill="none" xmlns="http://www.w3.org/2000/svg">
<path d="M15.8538 8.10005V17.571C15.8538 18.7131 15.3558 19.8 14.4879 20.544L10.6493 23.8482C9.27757 25.031 7.24178 25.031 5.87003 23.8482L2.03145 20.544C1.16355 19.7971 0.665527 18.7131 0.665527 17.571V8.10005C0.665527 6.95795 1.16355 5.87107 2.03145 5.12711L5.87003 1.82288C7.24178 0.640095 9.27757 0.640095 10.6493 1.82288L14.4879 5.12711C15.3558 5.87398 15.8538 6.95795 15.8538 8.10005Z" stroke="white" stroke-width="0.475466" stroke-miterlimit="10"/>
<path d="M0.668457 12.8372H15.8538" stroke="white" stroke-width="0.475466" stroke-miterlimit="10"/>
<path d="M8.26112 13.924C8.8627 13.924 9.35037 13.4374 9.35037 12.8371C9.35037 12.2369 8.8627 11.7502 8.26112 11.7502C7.65955 11.7502 7.17188 12.2369 7.17188 12.8371C7.17188 13.4374 7.65955 13.924 8.26112 13.924Z" fill="white"/>
</svg>
