<svg width="20" height="26" viewBox="0 0 20 26" fill="none" xmlns="http://www.w3.org/2000/svg">
<path d="M15.8117 4.68452H4.78813C4.40369 4.68452 4.01925 4.62059 3.6552 4.49272L2.05919 3.93765C0.766076 3.48721 0.766076 1.66218 2.05919 1.21173L3.70762 0.639232C4.03673 0.525894 4.38331 0.467773 4.72988 0.467773H15.8117C16.1641 0.467773 16.5165 0.525893 16.8514 0.642137L18.5639 1.23789C19.8337 1.67961 19.8337 3.47268 18.5639 3.9144L16.8514 4.51015C16.5165 4.6264 16.167 4.68452 15.8117 4.68452Z" stroke="white" stroke-width="0.475466" stroke-miterlimit="10"/>
<path fill-rule="evenodd" clip-rule="evenodd" d="M0.851562 24.5448V2.57764H1.32703V24.5448H0.851562Z" fill="white"/>
<path d="M1.08925 25.6315C1.69082 25.6315 2.17849 25.1449 2.17849 24.5447C2.17849 23.9444 1.69082 23.4578 1.08925 23.4578C0.487674 23.4578 0 23.9444 0 24.5447C0 25.1449 0.487674 25.6315 1.08925 25.6315Z" fill="white"/>
<path fill-rule="evenodd" clip-rule="evenodd" d="M19.2783 24.5448V2.57764H19.7538V24.5448H19.2783Z" fill="white"/>
</svg>
