<svg width="20" height="26" viewBox="0 0 20 26" fill="none" xmlns="http://www.w3.org/2000/svg">
<path d="M13.6084 1.42041H5.57304C4.80125 1.42041 4.06149 1.72555 3.51396 2.2719L1.06169 4.71593C0.00157099 5.77084 0.00157099 7.48544 1.06169 8.54035L3.51396 10.9844C4.06149 11.5278 4.80125 11.8359 5.57304 11.8359H13.6084C14.3802 11.8359 15.12 11.5307 15.6675 10.9844L18.1198 8.54035C19.1799 7.48544 19.1799 5.77084 18.1198 4.71593L15.6675 2.2719C15.12 1.72846 14.3802 1.42041 13.6084 1.42041Z" stroke="white" stroke-width="0.475466" stroke-miterlimit="10"/>
<path d="M4.70215 25.5065V1.55444" stroke="white" stroke-width="0.475466" stroke-miterlimit="10"/>
<path d="M4.70252 2.64154C5.3041 2.64154 5.79178 2.15492 5.79178 1.55466C5.79178 0.954388 5.3041 0.467773 4.70252 0.467773C4.10095 0.467773 3.61328 0.954388 3.61328 1.55466C3.61328 2.15492 4.10095 2.64154 4.70252 2.64154Z" fill="white"/>
</svg>
