<svg width="20" height="26" viewBox="0 0 20 26" fill="none" xmlns="http://www.w3.org/2000/svg">
<path d="M15.3922 5.15254H4.36871C3.98427 5.15254 3.59982 5.08861 3.23577 4.96074L1.63976 4.40567C0.346643 3.95523 0.346643 2.1302 1.63976 1.67975L3.28819 1.10725C3.6173 0.993912 3.96388 0.935791 4.31045 0.935791H15.3922C15.7446 0.935791 16.097 0.993915 16.432 1.11016L18.1445 1.70591C19.4143 2.14763 19.4143 3.9407 18.1445 4.38242L16.432 4.97818C16.097 5.09442 15.7475 5.15254 15.3922 5.15254Z" stroke="white" stroke-width="0.475466" stroke-miterlimit="10"/>
<path d="M9.88184 0.970703V25.0129" stroke="white" stroke-width="0.475466" stroke-miterlimit="10"/>
<path d="M9.88222 6.23968C10.4838 6.23968 10.9715 5.75306 10.9715 5.1528C10.9715 4.55253 10.4838 4.06592 9.88222 4.06592C9.28065 4.06592 8.79297 4.55253 8.79297 5.1528C8.79297 5.75306 9.28065 6.23968 9.88222 6.23968Z" fill="white"/>
</svg>
