<svg width="20" height="27" viewBox="0 0 20 27" fill="none" xmlns="http://www.w3.org/2000/svg">
<path d="M10.4301 2.17376C11.0316 2.17376 11.5193 1.68715 11.5193 1.08688C11.5193 0.486613 11.0316 0 10.4301 0C9.82849 0 9.34082 0.486613 9.34082 1.08688C9.34082 1.68715 9.82849 2.17376 10.4301 2.17376Z" fill="white"/>
<path d="M17.9002 8.25049L2.95947 25.6609" stroke="white" stroke-width="0.475466" stroke-miterlimit="10"/>
<path d="M18.1366 9.07537C18.7382 9.07537 19.2259 8.58876 19.2259 7.98849C19.2259 7.38822 18.7382 6.90161 18.1366 6.90161C17.535 6.90161 17.0474 7.38822 17.0474 7.98849C17.0474 8.58876 17.535 9.07537 18.1366 9.07537Z" fill="white"/>
<path d="M1.54171 2.29284C1.71354 2.23181 1.90285 2.23181 2.07759 2.29284C2.45621 2.42362 3.09986 2.72585 3.16393 3.26638C3.25713 4.04231 3.16393 25.1028 3.16393 25.1028C3.16393 25.1028 3.22509 25.87 2.04556 26.1577C1.88537 26.1984 1.71354 26.1839 1.55918 26.1229C1.18057 25.9717 0.481586 25.6317 0.481586 25.1522V3.36229C0.481586 3.36229 0.335965 2.72294 1.54171 2.29284Z" stroke="white" stroke-width="0.475466" stroke-miterlimit="10"/>
</svg>
